<svg width="100%" height="100%" viewBox="0 0 800 760"
     xmlns="http://www.w3.org/2000/svg"
     xmlns:xlink="http://www.w3.org/1999/xlink">
<g transform="translate(218.04,241.69)" >
  <path 
    d="M0,0c9.17,-0.81,14.16,16.2,0,25c-12.55,9.53,-41.58,2.51,-50,-25c-9.91,-25.89,9.13,-66.97,50,-75c39.27,-10.28,92.32,20.78,100,75c10.62,52.62,-32.39,117.69,-100,125c-65.96,10.99,-143.08,-44.04,-150,-125c-11.39,-79.34,55.71,-168.43,150,-175c92.69,-11.73,193.8,67.33,200,175c6.2,107.67,107.31,186.74,200,175c94.29,-6.57,161.39,-95.66,150,-175c-6.91,-80.96,-84.05,-135.99,-150,-125c-67.61,7.31,-110.62,72.38,-100,125c7.68,54.22,60.73,85.28,100,75c40.88,-8.03,59.91,-49.11,50,-75c-8.42,-27.51,-37.44,-34.53,-50,-25c-14.16,8.8,-9.17,25.81,0,25c-3.87,8.34,-21.15,4.16,-21.65,-12.5c-1.97,-15.61,18.59,-37.3,46.65,-30.8c27.38,4.38,53.44,41.36,39.95,80.8c-10.72,39.12,-64.14,69.59,-114.95,49.1c-50.89,-17.08,-85.72,-86.91,-58.25,-149.1c23.46,-62.61,109.67,-101.9,183.25,-67.4c74.35,29.8,118.05,132.45,76.55,217.4c-36.17,86.12,-155.19,134.19,-251.55,85.71c-96.36,-48.48,-215.38,-0.41,-251.55,85.71c-41.5,84.95,2.19,187.59,76.55,217.4c73.58,34.5,159.79,-4.78,183.25,-67.4c27.47,-62.19,-7.36,-132.02,-58.25,-149.1c-50.81,-20.48,-104.23,9.98,-114.95,49.1c-13.48,39.44,12.57,76.42,39.95,80.8c28.06,6.5,48.63,-15.19,46.65,-30.8c-0.5,-16.66,-17.78,-20.84,-21.65,-12.5c-5.28,-7.52,6.96,-20.38,21.65,-12.5c14.51,6.11,22.98,34.73,3.35,55.8c-17.48,21.48,-62.53,25.63,-89.95,-5.8c-28.49,-28.86,-28.21,-90.33,14.95,-124.1c40.27,-35.51,118.11,-30.79,158.25,24.1c42.5,51.64,33.41,145.92,-33.25,192.4c-63.03,49.5,-173.68,36,-226.55,-42.4c-56.49,-74.41,-38.62,-201.48,51.55,-260.71c90.17,-59.23,108.03,-186.3,51.55,-260.71c-52.86,-78.4,-163.52,-91.9,-226.55,-42.4c-66.66,46.49,-75.75,140.76,-33.25,192.4c40.13,54.89,117.99,59.62,158.25,24.1c43.16,-33.77,43.44,-95.24,14.95,-124.1c-27.42,-31.43,-72.46,-27.28,-89.95,-5.8c-19.63,21.07,-11.16,49.69,3.35,55.8c14.69,7.89,26.93,-4.99,21.65,-12.5"
  />
  </g>
</svg>   
